<svg xmlns="http://www.w3.org/2000/svg" preserveAspectRatio="xMidYMax" viewBox="0 0 369 172">
  <path d="M86.983 23.465h.272c1.797-.005 3.563.177 5.331.496l.349.063c5.588 1.02 10.731 3.447 15.201 6.933l.347.267c1.579 1.26 3.083 2.684 4.386 4.227l.161.186c4.018 4.719 6.924 10.686 7.767 16.852l.033.239c.262 1.848.351 3.688.352 5.551l.001.307c-.001 1.623-.092 3.188-.386 4.788l-.05.292c-1.003 5.874-3.476 11.447-7.286 16.034l-.29.358c-1.422 1.721-3.011 3.382-4.797 4.729l-.444.354c-3.046 2.405-6.436 4.147-10.084 5.442l-.497.186c-1.766.627-3.615.974-5.465 1.266l-.364.058c-1.591.238-3.185.286-4.791.281h-.499l-1.339-.002h-1.408c-.886-.001-1.772-.001-2.656-.003-3.085-.001-6.163-.005-9.247-.008v-12.78l3.606-.006 2.282-.007c1.205-.006 2.407-.01 3.611-.011.878 0 1.754-.003 2.63-.007.462-.002.928-.005 1.389-.002 6.302.01 12.003-1.72 16.65-6.117l.291-.272c3.951-3.807 6.097-9.302 6.241-14.736.04-3.078-.476-6.048-1.68-8.892l-.104-.244c-2.382-5.559-6.98-9.439-12.504-11.675-2.204-.816-4.522-1.16-6.863-1.134-.301.004-.606.004-.909.001-1.677.003-3.304.127-4.924.591l-.331.098c-2.625.758-5.093 1.928-7.254 3.607l-.323.249c-1.046.817-2.031 1.682-2.873 2.71l-.154.179c-2.354 2.782-3.9 5.988-4.727 9.529l-.054.229c-.391 1.8-.423 3.633-.42 5.471l-.001.74c.002 1.4.001 2.801-.004 4.201l-.004 3.779c0 1.824-.001 3.649-.003 5.473l-.006 2.813-.005 6.076-.001.267-.008 8.614c-.001 2.023-.004 4.045-.006 6.066v.259l-.004 2.55-.006 5.46c0 1.331-.001 2.658-.003 3.985-.002.72-.002 1.438-.002 2.156 0 .658 0 1.317-.002 1.978v.708c.004 2.098-.07 4.214-.545 6.263l-.077.359-.161.716c-.071.302-.136.605-.199.909-.55 2.538-1.6 5.067-2.832 7.348l-.214.42c-.965 1.921-2.22 3.714-3.574 5.38l-.152.183c-.78.973-1.639 1.866-2.519 2.751l-.308.313a25.81 25.81 0 0 1-2.226 1.955l-.22.179c-3.698 2.953-7.975 5.044-12.538 6.262-.212.056-.422.115-.631.176-8.366 2.287-17.8.738-25.278-3.512-3.639-2.122-7.171-4.945-9.721-8.307-.121-.15-.241-.298-.356-.448A36.247 36.247 0 0 1 .949 131.4l-.144-.234c-.889-1.466-1.562-3.034-2.222-4.617l-.11-.265c-3.253-7.791-2.911-17.367.184-25.133.865-2.069 1.869-4.089 3.123-5.951l.172-.261a31.91 31.91 0 0 1 2.547-3.29l.229-.263c.13-.152.266-.304.396-.452l.425-.493c1.216-1.389 2.593-2.615 4.068-3.723.208-.157.414-.315.62-.476 1.184-.901 2.437-1.665 3.729-2.4l.272-.159c1.586-.893 3.235-1.573 4.934-2.21l.253-.097c4.232-1.567 8.615-1.836 13.079-1.82 1.359 0 2.732.002 4.093.007 1.209.005 2.417.006 3.621.006 1.899.002 3.794.007 5.688.012v12.78l-3.612.013-2.282.011c-1.201.005-2.401.012-3.61.016-.876.003-1.751.005-2.629.013-.463.002-.924.005-1.387.006-4.322.005-8.193.592-12.033 2.662l-.217.114c-1.458.773-2.697 1.731-3.908 2.849-.206.185-.413.362-.63.535-.435.376-.794.788-1.16 1.232l-.153.18a21.18 21.18 0 0 0-4.474 8.651l-.094.342c-.42 1.682-.54 3.395-.536 5.127v.272c.019 5.672 2.392 10.671 6.206 14.769l.215.237c3.296 3.453 8.483 5.917 13.247 6.046.448.008.896.01 1.345.01.276 0 .553.003.835.005 4.917.019 9.864-1.73 13.577-4.995l.303-.267c.299-.263.592-.527.881-.799l.262-.247c.787-.756 1.451-1.599 2.104-2.474l.151-.201c1.929-2.606 3.117-5.723 3.635-8.909l.059-.362c.194-1.296.21-2.573.207-3.883l.003-.74v-2.02c0-.73 0-1.459.005-2.188v-3.782c0-1.827.004-3.654.007-5.481 0-.939 0-1.877.004-2.816l.003-6.082v-.268c.005-2.876.008-5.75.008-8.627l.013-8.883c.004-1.823.004-3.646.004-5.469 0-1.33.004-2.659.004-3.989.003-.721.003-1.442.003-2.159v-1.98c.005-.237.005-.473 0-.711-.011-8.523 3.072-17.023 8.941-23.268.244-.263.483-.531.717-.805.416-.48.861-.918 1.324-1.352l.252-.232a26.259 26.259 0 0 1 2.184-1.812l.46-.349c1.39-1.058 2.837-1.951 4.375-2.775l.318-.172c5.005-2.666 10.5-3.877 16.15-3.889Z" style="transform-box:fill-box;transform-origin:50% 50%;fill:#bfbfbf" transform="rotate(-31 0 0)"/>
  <path fill="currentColor" d="M157.805 24.517c-4.326 0-7.594.981-9.807 2.942-2.214 1.962-3.572 4.954-4.075 8.978l-1.508 10.561h19.161l-3.016 10.713h-17.654l-9.054 64.428c-1.005 7.342-2.69 13.201-5.054 17.577-2.363 4.376-5.431 7.922-9.203 10.638-3.773 2.715-8.927 5.481-15.466 8.297l-3.923-10.41c4.225-1.911 7.569-3.772 10.033-5.582 2.465-1.811 4.527-4.326 6.187-7.544 1.66-3.22 2.892-7.545 3.696-12.976l9.053-64.428h-14.032l1.509-10.713h14.032l1.66-11.315c.906-6.84 3.722-12.273 8.45-16.296 4.727-4.024 10.913-6.035 18.558-6.035 3.621 0 6.84.452 9.657 1.358 2.816.905 5.834 2.364 9.053 4.375l-5.281 9.204c-3.722-2.514-8.047-3.772-12.976-3.772Zm43.956 20.672c4.929 0 9.631.552 14.107 1.659 4.477 1.107 9.079 2.816 13.806 5.13l-8.147 56.43c-.202 1.61-.302 2.716-.302 3.319 0 1.811.377 3.27 1.131 4.376.755 1.107 2.088 2.012 3.999 2.716l-3.923 9.506c-4.225-.503-7.494-1.811-9.807-3.923-2.315-2.113-3.722-5.231-4.226-9.355-3.218 4.124-6.84 7.368-10.863 9.732-4.024 2.364-8.299 3.546-12.825 3.546-8.047 0-14.283-2.766-18.709-8.299-4.427-5.532-6.639-12.926-6.639-22.18 0-8.047 1.484-16.093 4.451-24.141 2.967-8.047 7.619-14.811 13.957-20.294 6.337-5.482 14.334-8.222 23.99-8.222Zm.302 11.014c-6.338 0-11.594 2.137-15.768 6.412-4.174 4.276-7.242 9.607-9.204 15.993-1.961 6.388-2.941 12.851-2.941 19.389 0 6.538 1.157 11.392 3.47 14.56 2.313 3.169 5.632 4.753 9.958 4.753 4.124 0 7.82-1.257 11.09-3.772 3.268-2.515 6.663-6.136 10.185-10.863l6.186-43.908c-2.113-.904-4.15-1.559-6.111-1.961-1.961-.402-4.25-.603-6.865-.603Zm57.687 49.338c-.201 2.012-.302 3.32-.302 3.923 0 2.515.579 4.351 1.735 5.508 1.157 1.156 2.943 1.734 5.357 1.734 1.811 0 3.596-.276 5.356-.829 1.761-.553 3.797-1.383 6.111-2.489l4.526 9.656c-5.532 3.52-11.417 5.281-17.653 5.281-6.135 0-10.864-1.584-14.183-4.754-3.319-3.168-4.979-7.669-4.979-13.503 0-2.113.101-3.722.302-4.829l6.639-47.528h-13.73l1.509-10.713h14.333l4.979-18.407 10.864-1.207-2.716 19.614h18.709l-3.017 10.713h-17.201l-6.639 47.83Zm94.35-40.134c0 10.159-4.527 17.502-13.58 22.029-9.052 4.525-21.727 7.695-38.022 9.504.302 13.178 6.035 19.766 17.201 19.766 3.721 0 7.293-.603 10.713-1.81 3.42-1.208 6.94-3.068 10.562-5.583l5.884 9.356c-8.953 6.436-18.458 9.656-28.517 9.656-9.656 0-17.125-2.842-22.407-8.526-5.281-5.682-7.921-13.604-7.921-23.763 0-7.947 1.383-15.817 4.149-23.614 2.767-7.795 7.218-14.283 13.353-19.463 6.137-5.181 13.932-7.77 23.388-7.77 8.047 0 14.258 1.961 18.634 5.884 4.375 3.922 6.563 8.701 6.563 14.334Zm-50.848 20.972c12.473-1.408 21.652-3.571 27.537-6.487 5.884-2.918 8.826-7.595 8.826-14.033 0-2.414-.854-4.627-2.565-6.639-1.709-2.012-4.476-3.017-8.299-3.017-7.644 0-13.528 2.917-17.653 8.75-4.124 5.835-6.739 12.977-7.846 21.426Z"/>
</svg>
